<svg width="80" height="80" viewBox="0 0 80 80" fill="none" xmlns="http://www.w3.org/2000/svg">
<g filter="url(#filter0_dd)">
<path fill-rule="evenodd" clip-rule="evenodd" d="M40.0541 10.2246C23.5184 10.2246 10.1096 23.8595 10.1096 40.6803C10.1096 54.1366 18.6896 65.5529 30.5875 69.5801C32.084 69.862 32.6334 68.9194 32.6334 68.115C32.6334 67.3887 32.6057 64.9896 32.5928 62.4447C24.2622 64.287 22.5043 58.8512 22.5043 58.8512C21.1422 55.3309 19.1795 54.3949 19.1795 54.3949C16.4627 52.5046 19.3843 52.5434 19.3843 52.5434C22.3913 52.7578 23.9746 55.6819 23.9746 55.6819C26.6453 60.338 30.9797 58.9919 32.6885 58.2137C32.9572 56.2458 33.7333 54.9012 34.5896 54.1412C27.9385 53.371 20.9468 50.7596 20.9468 39.0896C20.9468 35.7645 22.1166 33.0476 24.0321 30.9147C23.7212 30.1471 22.6962 27.05 24.3222 22.8548C24.3222 22.8548 26.8367 22.0363 32.559 25.9767C34.9476 25.3019 37.5093 24.9635 40.0541 24.9519C42.5989 24.9635 45.1625 25.3019 47.5556 25.9767C53.2709 22.0363 55.782 22.8548 55.782 22.8548C57.4119 27.05 56.3865 30.1471 56.0756 30.9147C57.9956 33.0476 59.1574 35.7645 59.1574 39.0896C59.1574 50.7873 52.1523 53.363 45.4843 54.117C46.5584 55.0621 47.5154 56.9156 47.5154 59.757C47.5154 63.8316 47.4807 67.1113 47.4807 68.115C47.4807 68.9255 48.0197 69.8751 49.5376 69.5761C61.429 65.5443 69.998 54.1321 69.998 40.6803C69.998 23.8595 56.5913 10.2246 40.0541 10.2246Z" fill="black"/>
<path fill-rule="evenodd" clip-rule="evenodd" d="M21.4511 53.9526C21.3852 54.1044 21.1511 54.1492 20.9379 54.0454C20.7207 53.946 20.5987 53.7397 20.6691 53.5879C20.7336 53.4321 20.9681 53.3892 21.1848 53.4926C21.4025 53.5925 21.5265 53.8007 21.4511 53.9526Z" fill="black"/>
<path fill-rule="evenodd" clip-rule="evenodd" d="M22.664 55.3284C22.5212 55.4631 22.242 55.4005 22.0526 55.1877C21.8567 54.9754 21.82 54.6914 21.9648 54.5547C22.1121 54.4201 22.3828 54.4831 22.5792 54.6954C22.7751 54.9103 22.8133 55.1922 22.664 55.3284Z" fill="black"/>
<path fill-rule="evenodd" clip-rule="evenodd" d="M23.8447 57.0825C23.6612 57.2121 23.3612 57.0906 23.1757 56.8197C22.9923 56.5489 22.9923 56.2241 23.1797 56.094C23.3657 55.9639 23.6612 56.0809 23.8491 56.3497C24.0321 56.6246 24.0321 56.9499 23.8447 57.0825Z" fill="black"/>
<path fill-rule="evenodd" clip-rule="evenodd" d="M25.4622 58.7771C25.298 58.9612 24.9485 58.9117 24.6926 58.6606C24.4308 58.415 24.3579 58.0665 24.5225 57.8824C24.6886 57.6978 25.0402 57.7497 25.298 57.9989C25.5579 58.244 25.6372 58.595 25.4622 58.7771Z" fill="black"/>
<path fill-rule="evenodd" clip-rule="evenodd" d="M27.6936 59.7611C27.6212 59.9996 27.2845 60.108 26.9453 60.0067C26.6066 59.9023 26.385 59.6229 26.4534 59.3818C26.5238 59.1417 26.862 59.0288 27.2037 59.1372C27.5419 59.2411 27.764 59.5185 27.6936 59.7611Z" fill="black"/>
<path fill-rule="evenodd" clip-rule="evenodd" d="M30.1442 59.9436C30.1526 60.1948 29.865 60.4031 29.509 60.4071C29.1509 60.4157 28.8614 60.2124 28.8574 59.9653C28.8574 59.7116 29.1385 59.5054 29.4966 59.4993C29.8526 59.4922 30.1442 59.694 30.1442 59.9436Z" fill="black"/>
<path fill-rule="evenodd" clip-rule="evenodd" d="M32.4247 59.5487C32.4673 59.7938 32.2199 60.0455 31.8663 60.1121C31.5187 60.1771 31.1969 60.0258 31.1528 59.7827C31.1096 59.5316 31.3615 59.2799 31.7086 59.2149C32.0627 59.1523 32.3795 59.2996 32.4247 59.5487Z" fill="black"/>
</g>
<defs>
<filter id="filter0_dd" x="0" y="0" width="80" height="80" filterUnits="userSpaceOnUse" color-interpolation-filters="sRGB">
<feFlood flood-opacity="0" result="BackgroundImageFix"/>
<feColorMatrix in="SourceAlpha" type="matrix" values="0 0 0 0 0 0 0 0 0 0 0 0 0 0 0 0 0 0 127 0" result="hardAlpha"/>
<feOffset/>
<feGaussianBlur stdDeviation="2.5"/>
<feComposite in2="hardAlpha" operator="out"/>
<feColorMatrix type="matrix" values="0 0 0 0 0.98 0 0 0 0 0 0 0 0 0 1 0 0 0 1 0"/>
<feBlend mode="normal" in2="BackgroundImageFix" result="effect1_dropShadow"/>
<feColorMatrix in="SourceAlpha" type="matrix" values="0 0 0 0 0 0 0 0 0 0 0 0 0 0 0 0 0 0 127 0" result="hardAlpha"/>
<feOffset/>
<feGaussianBlur stdDeviation="5"/>
<feComposite in2="hardAlpha" operator="out"/>
<feColorMatrix type="matrix" values="0 0 0 0 0.98 0 0 0 0 0 0 0 0 0 1 0 0 0 1 0"/>
<feBlend mode="normal" in2="effect1_dropShadow" result="effect2_dropShadow"/>
<feBlend mode="normal" in="SourceGraphic" in2="effect2_dropShadow" result="shape"/>
</filter>
</defs>
</svg>
